<?xml version="1.0" encoding="UTF-8" standalone="no"?>
<svg xmlns="http://www.w3.org/2000/svg" height="1.92e3" width="1.92e3">
<g id="g4186" transform="translate(-3.05 30.5)">
<path id="path4190" fill="#614c36" d="m551 758c13.9-33.5 47.5-75.9 81.6-85.9 78.6-6.73 158-0.487 232 23.5 9.42 10.2 23.6 67.5 15.2 73.5-72.3-9.67-165-59.1-252-13.2m655-7.22c-93.7-18.4-176 30.7-243 20.4 1.19-14.9-1.83-66.5 15.2-73.5 75.4-16.1 165-38.7 232-23.5 52.8 12 75.1 66.4 86 90.3m44.7 8.17c-0.068-59.7-8.24-123-20.9-176-12.4-43.8-12.5-89.6-26.2-126-16.3-43.8-31.1-67.3-67.6-95.4-69.8-29.4-185-31.2-257-23.6-60.7 7.36-124 21.2-177 27.5-49.8 12.9-106-3.13-151-0.264-53.8 21.4-129 40.6-163 77.8-31 39.8-39.9 77.2-44.6 116-7.83 76-4.74 134-7.7 201l-35.2-1.12c-7.1-74.5-30.5-171-14-238 5.76-22.9 5.95-25.5 6.17-79.9 1.54-65.8-4.43-127 32.1-184 38.4-40.6 69-102 108-130 30.1-21.4 61.1-21 93.2-36.9 21.7-13.7 43.5-26.8 64.3-31.5 6.51-1.44 9.71-1.54 24.8-0.837 90 0.632 89.3-20.9 177-19.5 14.5 17.3 28 20.3 40.4 20.3 39.4-1.77 77.4-13.2 114-12.4 35.9 6.01 57.9 39.1 88.3 53.2 37.7 14.4 83.7 30.7 104 57.7 8.28 11 12.4 17.3 40.9 62.9 33.5 53.6 44.9 73.7 66.8 118 23.3 47 26.5 55.5 34.3 91.8 11.6 65.4 19.3 119 18.4 188 6.96 65.5-22.7 103-20.4 144z"/>
<path id="path4188" fill="#050414" d="m705 1.11e3c-67.3 0.892-143-28.9-181-84.1-21.3-38.5-35.6-74.2-38.3-114-1.41-22.5-3.94-32.8-12.2-49.9-9.43-16.3-15-17.7-29.4-25.1-1.57-9.83-0.858-49.7 4.49-64.1 34.6-12.9 67.5-9.43 103-17.8 70.6-4.89 152-3.4 217 14 37.5 10.9 85.7 37 107 49.6 52.1-7.66 107-6.12 162-0.105 19.3-14.1 48-33.3 88.5-42.5 66.7-21.2 146-30.8 259-18.3 29.4 5.37 61.1 5.58 86.4 15.3 5.92 7.3 5.05 54.9 3.78 61.9-11.2 10.3-23.8 13.8-30.6 28.2-7.28 15.6-9.71 25.6-11.2 46.1-3.92 39.8-17.8 86-39.3 118-46.1 58.6-110 80.3-174 82.3-133 1.12-189-99.1-209-173-9.82-21.8 1.67-38.3-0.985-56-22.5-17.5-70.1-28.6-99.9 2.48-2.68 17.3 9.6 31.6-1.05 53.5-23 94-100 174-205 174zm175-188c1-65-48-110-106-128-77-16-182-36-236 31-17.7 22.5-25.6 48.9-25.6 84.7 0.0624 56.1 22.8 107 61.3 138 42.6 34.5 97.8 42.8 134 42.4 104-3.62 172-66.7 173-167zm342 169c52.1-0.065 125-37.4 151-72.5 29.9-46.9 41.3-105 27.6-156-15-52.5-63.8-82.9-137-85.5-54.8-1.91-129 14.4-166 36.6-39.5 23.4-60.3 58.9-60.3 112 2.2 104 93.7 164 186 165zm-716-275c9.18-3.43 10.4-7.55 3.82-12.3-9.72-6.01-41-3.15-43.5 2.71 3.5 7.88 34.3 11.4 39.7 9.63zm946-10.4c-3.79-8.5-29.2-8.11-37.6-4.2-12 6.88-9.38 12.3 0.938 16 6.84 3.01 35-3.78 36.6-11.8z"/>
</g>
</svg>
