<?xml version="1.0" encoding="UTF-8" standalone="no"?>
<!-- Created with Inkscape (http://www.inkscape.org/) -->

<svg
   xmlns:dc="http://purl.org/dc/elements/1.1/"
   xmlns:cc="http://creativecommons.org/ns#"
   xmlns:rdf="http://www.w3.org/1999/02/22-rdf-syntax-ns#"
   xmlns:svg="http://www.w3.org/2000/svg"
   xmlns="http://www.w3.org/2000/svg"
   xmlns:sodipodi="http://sodipodi.sourceforge.net/DTD/sodipodi-0.dtd"
   xmlns:inkscape="http://www.inkscape.org/namespaces/inkscape"
   id="svg3347"
   version="1.1"
   inkscape:version="0.91 r13725"
   width="1920"
   height="1920"
   viewBox="0 0 1920 1920"
   sodipodi:docname="GroupProfile.svg">
  <metadata
     id="metadata3353">
    <rdf:RDF>
      <cc:Work
         rdf:about="">
        <dc:format>image/svg+xml</dc:format>
        <dc:type
           rdf:resource="http://purl.org/dc/dcmitype/StillImage" />
        <dc:title></dc:title>
      </cc:Work>
    </rdf:RDF>
  </metadata>
  <defs
     id="defs3351" />
  <sodipodi:namedview
     pagecolor="#ffffff"
     bordercolor="#666666"
     borderopacity="1"
     objecttolerance="10"
     gridtolerance="10"
     guidetolerance="10"
     inkscape:pageopacity="0"
     inkscape:pageshadow="2"
     inkscape:window-width="958"
     inkscape:window-height="1018"
     id="namedview3349"
     showgrid="false"
     inkscape:zoom="0.34766083"
     inkscape:cx="932.8593"
     inkscape:cy="1026.5113"
     inkscape:window-x="-7"
     inkscape:window-y="0"
     inkscape:window-maximized="0"
     inkscape:current-layer="svg3347" />
  <g
     id="g3371"
     transform="translate(-18.305085,34.576271)">
    <path
       style="fill:#4a4a4a"
       d="m 954.98447,1439.0077 c -11.01938,-1.2799 -19.51199,-3.0441 -20.78588,-4.3181 -1.0068,-1.0068 -0.99245,-2.0992 0.0809,-6.1598 0.71761,-2.7148 1.76565,-7.1506 2.32897,-9.8573 1.58539,-7.6176 2.04186,-7.8075 12.28433,-5.1093 11.98406,3.1571 36.48778,4.0066 47.14912,1.6348 11.25219,-2.5034 15.43599,-7.714 12.74369,-15.8713 -2.0841,-6.315 -8.6591,-10.5194 -29.08947,-18.6012 -18.60543,-7.3599 -25.84237,-11.4718 -33.3704,-18.9607 -4.92525,-4.8998 -7.0545,-7.8206 -8.23444,-11.2961 -2.49241,-7.3414 -2.88811,-14.2453 -1.19521,-20.8533 3.36102,-13.1193 12.00421,-20.97 29.19768,-26.5204 5.69269,-1.8377 9.14006,-2.1766 26.01,-2.5567 19.84824,-0.4471 36.68374,0.7961 39.59374,2.9239 1.3258,0.9695 1.2756,2.0325 -0.5162,10.9153 -1.0917,5.4127 -2.3474,10.2228 -2.7905,10.6892 -0.4773,0.5026 -3.9731,0.1298 -8.5825,-0.9153 -9.6835,-2.1954 -36.27985,-2.5428 -42.84704,-0.5597 -6.04181,1.8244 -9.46125,5.6151 -9.46125,10.4884 0,8.2628 4.21903,11.6001 23.74256,18.7806 21.82093,8.0255 29.97313,12.4073 38.25693,20.563 9.0886,8.9479 11.4297,14.3601 11.3611,26.2638 -0.1288,22.3413 -14.5885,34.8874 -44.85,38.9146 -10.8719,1.4468 -30.39937,1.6399 -41.02612,0.4056 z m -209.21418,-16.1171 c 0.56114,-11.4954 0.63023,-78.0572 0.11654,-112.2656 l -0.10558,-7.0312 22.03125,-0.7485 c 50.06116,-1.7005 67.5028,0.8304 79.04524,11.4699 5.79858,5.3449 8.42888,11.7585 8.48311,20.6848 0.0661,10.8868 -2.08466,15.9927 -10.09461,23.9645 -4.96006,4.9364 -8.2624,7.3149 -12.98062,9.3492 -3.48046,1.5007 -6.32712,2.9511 -6.32589,3.223 9.4e-4,0.272 2.3447,1.7186 5.20771,3.2145 6.31545,3.3 12.54051,10.0935 18.63093,20.3322 4.73119,7.9537 19.28413,38.859 19.28413,40.9528 0,0.9318 -3.83137,1.1369 -17.51658,0.9376 l -17.51659,-0.255 -4.52205,-11.25 c -11.11491,-27.6517 -17.1073,-36.3482 -27.0884,-39.3123 -6.21489,-1.8456 -23.91115,-2.0594 -24.5871,-0.2971 -0.24721,0.6445 -0.21518,12.457 0.0711,26.25 l 0.52066,25.0781 -16.6756,0 -16.67561,0 0.69787,-14.2969 z m 57.93008,-59.2701 c 14.05053,-2.9773 20.8383,-9.7138 20.80907,-20.6517 -0.0282,-10.5714 -6.14744,-16.8452 -18.666,-19.1376 -6.10506,-1.118 -18.29866,-1.2384 -24.90594,-0.2461 l -4.21875,0.6337 0.33652,19.6875 c 0.18508,10.8281 0.52638,20.0039 0.75844,20.3906 0.7295,1.2156 19.24029,0.732 25.88666,-0.6764 z m 84.55876,34.4264 c -7.8e-4,-32.2555 -0.27726,-40.7898 -1.57174,-48.5156 -0.86394,-5.1563 -1.22697,-9.724 -0.80676,-10.1505 1.04894,-1.0647 21.88889,-3.5685 22.63642,-2.7198 0.33072,0.3755 0.22339,12.0734 -0.23849,25.9953 -0.52177,15.7266 -0.49284,34.3427 0.0764,49.1579 0.50391,13.1149 0.70373,24.1891 0.44405,24.6093 -0.25968,0.4202 -4.98717,0.764 -10.50553,0.764 l -10.03338,0 -9.4e-4,-39.1406 z m 178.13727,24.8659 c 0.5637,-11.5125 0.6338,-79.2848 0.1169,-113.2253 l -0.107,-7.0312 16.4062,0 16.4063,0 -0.3596,26.3516 c -0.2534,18.5708 -0.054,26.5406 0.6756,26.9914 1.8302,1.1311 6.1692,-1.9255 13.1185,-9.2413 8.0063,-8.4285 24.7765,-29.2748 30.7649,-38.2424 l 4.2258,-6.3281 16.803,0 c 19.8435,0 19.8228,-0.017 11.9406,9.5607 -6.8503,8.3233 -34.7487,36.5223 -41.8654,42.3165 l -5.9467,4.8416 4.0717,3.2236 c 10.1212,8.0135 22.9413,23.2053 41.6126,49.3116 10.3352,14.4507 15.4035,22.5284 15.4189,24.5741 0.01,0.8996 -4.4521,1.1719 -19.1942,1.1719 l -19.2029,0 -2.4936,-4.9219 c -3.2252,-6.3659 -11.7626,-19.1266 -21.4825,-32.1094 -12.6607,-16.9107 -20.2902,-23.8951 -26.1101,-23.9027 l -2.7109,0 0.3671,30.2343 0.3672,30.2344 -16.7618,0.2565 -16.7618,0.2565 0.7012,-14.319 z M 892.80514,1318.6321 c -8.46067,-3.6803 -8.68464,-15.3451 -0.40088,-20.8791 4.40605,-2.9433 12.80686,-2.9921 16.48916,-0.096 3.29314,2.5904 5.38156,7.5282 4.59578,10.8661 -2.17221,9.2273 -11.8437,13.9539 -20.68406,10.1086 z m -8.97265,-90.4999 c -18.4092,-2.2968 -31.61406,-11.5533 -37.45745,-26.2572 -2.83723,-7.1394 -2.80712,-20.5788 0.0639,-28.5181 5.42976,-15.0149 16.58853,-24.9873 31.02323,-27.7247 10.94081,-2.0749 21.41606,-0.6926 30.32038,4.001 10.07201,5.3091 14.72261,13.5955 15.45156,27.5316 0.38494,7.3593 0.22469,8.8234 -1.01806,9.3002 -0.81121,0.3114 -15.10653,0.8473 -31.76737,1.1911 -30.17188,0.6226 -30.29359,0.6333 -30.58287,2.6648 -0.56067,3.9373 3.61139,11.3889 9.35251,16.7042 4.46759,4.1361 6.83109,5.5221 12.19615,7.1517 6.00087,1.8227 8.04671,1.9674 20.82323,1.4729 7.7927,-0.3017 15.11264,-0.8301 16.26653,-1.1742 2.79663,-0.8341 3.57909,1.3424 2.49366,6.9363 -0.83783,4.3178 -0.8646,4.3425 -5.90219,5.4553 -6.98036,1.5419 -23.64108,2.2161 -31.26321,1.2651 z m 22.57314,-54.3822 c 0.17152,-1.8047 -0.13255,-4.7656 -0.67574,-6.5798 -1.20256,-4.0166 -6.92843,-9.6652 -11.26041,-11.1085 -4.55121,-1.5163 -14.02906,-1.3109 -19.09058,0.4137 -7.10758,2.4218 -14.7539,12.0963 -14.7539,18.6674 l 0,2.3906 22.73437,-0.2511 22.73438,-0.2511 0.31188,-3.2812 z m 55.34806,54.394 c -9.20775,-1.6309 -16.55438,-6.5518 -19.22869,-12.8795 -0.70125,-1.6592 -1.275,-5.5134 -1.275,-8.5648 0,-10.8644 8.02931,-20.4826 20.10994,-24.0897 7.07475,-2.1124 20.78887,-4.1644 27.86025,-4.1688 8.82834,-0.01 9.21797,-0.2575 9.21384,-5.9634 0,-5.6975 -2.34675,-10.1434 -6.46772,-12.2743 -5.14734,-2.6618 -15.82875,-3.6341 -27.44512,-2.4983 -5.83819,0.571 -12.04613,1.4492 -13.79532,1.9517 -1.74918,0.5026 -3.58987,0.6607 -4.0904,0.3513 -0.96469,-0.5962 -0.50391,-10.2022 0.53944,-11.2457 1.2795,-1.2795 13.7325,-3.134 25.02815,-3.7274 24.2176,-1.272 37.97194,4.4281 41.15114,17.0541 0.658,2.6127 0.9901,12.8202 0.8906,27.3669 -0.1032,15.0703 0.2435,25.3017 0.9895,29.1976 1.3852,7.2345 1.0833,7.5615 -6.9999,7.582 -5.8761,0.015 -7.9219,-0.9983 -7.9219,-3.9232 0,-2.2189 -0.82791,-2.1347 -6.24159,0.6348 -8.58028,4.3894 -23.41135,6.7743 -32.31722,5.1967 z m 20.12025,-11.2947 c 7.2764,-1.052 15.32344,-4.1936 16.47984,-6.434 0.42844,-0.8299 0.56569,-6.0793 0.30497,-11.6651 -0.35269,-7.5585 -0.81309,-10.2861 -1.79981,-10.6648 -2.55694,-0.9812 -23.67244,1.6054 -28.81603,3.5299 -15.08747,5.6449 -15.8716,22.4028 -1.17394,25.0883 6.57684,1.2017 7.63003,1.2119 15.00497,0.1457 z m -204.34267,-26.8892 c 0.32025,-20.0014 0.26845,-41.8507 -0.11512,-48.5539 l -0.6974,-12.1875 -18.75,0 -18.75,0 -0.29167,-4.0536 c -0.16041,-2.2296 0.20765,-4.6554 0.81793,-5.3906 0.93234,-1.1234 8.24919,-1.337 45.80728,-1.337 33.51488,0 44.97918,0.2814 45.82271,1.125 0.61875,0.6187 1.11854,2.4117 1.11065,3.9844 -0.0285,5.6744 -0.0194,5.6718 -20.34509,5.6718 l -18.54681,0 -0.0131,48.2813 -0.0131,48.2812 -8.3092,0.2727 -8.30921,0.2726 0.58228,-36.3664 z m 261.97123,35.1529 c -0.2267,-0.6638 -0.041,-6.9021 0.4124,-13.863 1.0704,-16.426 0.24,-46.2323 -1.5537,-55.7732 -0.7747,-4.1206 -1.1096,-7.7839 -0.7443,-8.1406 1.1695,-1.1418 13.7235,-2.4807 14.8442,-1.5831 0.5802,0.4646 1.3339,2.5895 1.675,4.7221 0.3409,2.1325 0.8317,4.2199 1.0906,4.6388 0.2588,0.4188 3.1275,-1.0574 6.3748,-3.2806 7.8903,-5.402 15.9857,-7.5822 25.6488,-6.9078 9.0861,0.6341 16.411,3.3719 20.9935,7.8466 l 3.5328,3.4496 6.1082,-3.9796 c 9.0093,-5.8698 16.0485,-7.8399 25.8943,-7.2471 14.343,0.8635 22.7818,5.7812 25.8954,15.0903 1.36,4.0664 1.6017,9.1889 1.6616,35.2271 l 0.07,30.4687 -8.4375,0 -8.4375,0 0.1444,-3.75 c 1.2805,-33.2635 1.3893,-49.1701 0.3618,-52.9121 -1.7978,-6.547 -5.8216,-9.8779 -13.5613,-11.2256 -7.6527,-1.3327 -12.4256,-0.7039 -18.8199,2.4796 -9.5909,4.775 -8.9062,2.0043 -8.9062,36.0403 l 0,29.8366 -8.4895,0 -8.4896,0 0.7466,-15.2344 c 0.4105,-8.3789 0.7362,-21.1406 0.7236,-28.3593 -0.021,-11.8232 -0.2347,-13.5281 -2.16,-17.1884 -2.9144,-5.5408 -8.336,-7.9591 -17.9561,-8.0092 -5.7656,-0.03 -8.077,0.4393 -12.841,2.608 -9.8124,4.4669 -9.1903,2.026 -9.1903,36.0558 l 0,29.6587 -8.0894,0.2693 c -5.952,0.1981 -8.1984,-0.05 -8.5018,-0.9375 z"
       id="path3375"
       inkscape:connector-curvature="0" />
    <path
       style="fill:#030303"
       d="m 955.78125,1437.5628 c -9.04331,-1.2651 -20.21077,-3.4551 -20.56832,-4.0336 -0.38375,-0.6209 3.82101,-18.4689 4.67751,-19.8548 0.20803,-0.3366 4.5014,0.4579 9.54075,1.7656 8.17893,2.1225 11.07469,2.3851 26.97506,2.4461 20.64178,0.079 26.17135,-1.0258 31.06655,-6.2075 5.6266,-5.956 4.9244,-13.0046 -1.9247,-19.3179 -4.9501,-4.5629 -10.29594,-7.3565 -25.85198,-13.5102 -23.65237,-9.3563 -34.03753,-16.4724 -39.10781,-26.7973 -2.32209,-4.7286 -2.61534,-6.3459 -2.58262,-14.2407 0.0309,-7.4834 0.4019,-9.6551 2.32143,-13.5938 4.89104,-10.0362 16.01147,-17.3913 31.39163,-20.7629 12.80616,-2.8071 55.62275,-1.8018 58.80535,1.3808 0.3769,0.3769 -0.082,4.681 -1.0189,9.5649 -1.9878,10.358 -0.5332,9.7558 -17.0052,7.0395 -11.9096,-1.9639 -29.841,-1.5187 -36.76875,0.9129 -6.06366,2.1284 -10.10625,6.8435 -10.10625,11.7878 0,8.0618 4.71459,12.4836 19.35628,18.1545 5.08059,1.9677 13.03434,5.05 17.67492,6.8494 28.5066,11.0533 40.1132,26.2708 36.1317,47.3723 -2.4701,13.0907 -11.0755,22.1517 -25.2121,26.5467 -11.5182,3.5809 -16.83068,4.2603 -35.7633,4.5736 -10.57031,0.175 -20.48438,0.141 -22.03125,-0.076 z m -208.125,-66.8183 0,-65.5508 21.09375,-0.6882 c 39.39794,-1.2853 59.00597,0.3291 69.55474,5.7269 10.77769,5.5149 15.29194,13.1071 15.28398,25.7051 -0.005,6.8138 -0.38397,8.7419 -2.61959,13.3032 -3.48905,7.1186 -10.82004,13.6837 -19.77749,17.7111 -8.84603,3.9773 -9.13285,5.4316 -1.73852,8.8145 6.6732,3.0531 12.34055,8.972 18.42509,19.243 4.82092,8.138 17.97027,35.783 18.5205,38.9373 0.30526,1.75 -0.37695,1.8466 -14.7808,2.0916 -11.36206,0.1933 -15.33728,-0.038 -16.05581,-0.9375 -0.52523,-0.657 -2.53206,-5.2023 -4.45962,-10.1007 -1.92757,-4.8984 -5.84518,-13.7347 -8.70581,-19.636 -5.92544,-12.2241 -10.74057,-17.6984 -17.78016,-20.2146 -4.78265,-1.7094 -21.87984,-2.9917 -26.02351,-1.9518 l -2.48839,0.6246 0.23839,25.9795 0.23839,25.9796 -14.46257,0.257 -14.46257,0.2571 0,-65.5509 z m 52.66654,-4.8791 c 17.12528,-2.3575 25.84908,-10.0849 25.84908,-22.8966 0,-12.3371 -7.10639,-19.0371 -22.47407,-21.189 -7.53575,-1.0551 -25.14385,-0.3912 -27.45163,1.035 -1.00922,0.6238 -1.21662,4.8101 -1.02753,20.7411 0.13029,10.9779 0.64143,20.7155 1.13586,21.6394 0.7545,1.4098 2.16334,1.6797 8.76689,1.6797 4.32737,0 11.16799,-0.4543 15.2014,-1.0096 z m 267.95851,4.3136 0,-66.1163 14.751,-10e-5 14.751,-10e-5 -0.5991,26.0156 c -0.5416,23.5119 -0.45,26.1394 0.9512,27.3016 2.5678,2.1298 6.3166,-0.21 15.3551,-9.5837 9.4514,-9.8018 27.0997,-31.5273 31.5061,-38.785 l 2.9722,-4.8953 15.7031,-0.026 c 8.6367,-0.015 15.7031,0.3131 15.7031,0.7284 0,2.9745 -34.7753,39.3692 -45.8593,47.995 -3.6442,2.8359 -6.6292,5.6633 -6.6332,6.2831 0,0.6197 1.8089,2.3766 4.029,3.9039 9.0371,6.2178 22.1366,21.4257 40.3396,46.8323 11.2869,15.7536 16.7261,24.4558 16.01,25.6145 -0.2732,0.442 -8.0852,0.8037 -17.36,0.8037 l -16.8633,0 -1.597,-2.9455 c -2.9342,-5.4117 -14.4457,-22.7349 -21.093,-31.742 -14.2706,-19.337 -23.2969,-27.5376 -29.7143,-26.9963 l -3.2897,0.2775 0,30.4688 0,30.4687 -14.5313,0.2571 -14.5312,0.2571 0,-66.1164 z"
       id="path3373"
       inkscape:connector-curvature="0" />
  </g>
  <g
     transform="matrix(0.53637104,0,0,0.53637104,1061.4357,677.77193)"
     id="g3348">
    <path
       d="m 842,1150 c 36.1,-33.6 62.6,-103 64.2,-157 -1.56,-34.5 -47.5,-40.5 -72.3,-43.7 -52,-6.44 -109,-8.65 -167,2.35 -37.7,7.97 -62.3,14.8 -68.4,22.8 -10.8,14.2 -11.6,66.8 -1.61,111 6.57,25.2 16.2,58.2 38.4,68.9 40.1,13.2 181,15.4 206,-4.97 z m 451,-0.033 c 10.3,-5.31 23.8,-33.6 30.6,-63.9 8.23,-36.9 9.36,-83.7 2.5,-103 -2.44,-6.95 -5.42,-10.7 -10.9,-13.7 -9.54,-5.17 -33.6,-11.4 -66.1,-17.3 -73,-11.9 -70.6,-10.5 -160,-0.0626 -22.8,2.75 -42.7,7.67 -59.6,14.7 -11.9,4.96 -15.2,10.8 -15,26.7 8.83,50.8 16,110 64.2,157 27.2,12.7 153,29.8 214,-0.033 z m -790,-162 c 8.36,-4.47 47.6,-15.9 65.8,-19.4 137,-41.4 221,-41.4 339,-14.4 11.3,2.86 22.3,5.61 24.4,6.12 18.9,-2.2 43.5,-2.21 60.9,0 2.06,-0.513 13,-3.27 24.4,-6.12 39.9,-10 69.9,-14.9 111,-18 65.6,-4.98 132,3.56 206,26.5 26.8,5.31 55.8,14 81.6,23 l 9.07,43.8 c -23.2,-10.9 -52.7,-8.57 -72.5,0.685 -4.35,2.12 -4.21,1.7 -7.4,23.3 -5.36,36.4 -16.9,70.1 -32.1,94.2 -9.35,14.8 -16.4,17.8 -50.7,21.6 -71.1,7.8 -120,7.08 -163,-2.38 -21.4,-4.73 -29.6,-12.6 -49.7,-37.4 -26.5,-36.4 -39.9,-130 -55.3,-140 -16.5,-8.21 -45.3,-9.71 -63.3,0 -17.3,34.1 -24.1,79.8 -43.8,120 -13.5,26.8 -28.1,44.1 -43.9,52 -46.4,17.2 -120,16.6 -205,4.3 -37.2,-8.88 -51.2,-72.3 -57.3,-112 -3.19,-21.6 -3.06,-21.2 -7.4,-23.3 -21.9,-7.83 -47.7,-9.06 -77.5,0.568"
       id="path3352"
       inkscape:connector-curvature="0"
       style="fill:#565453" />
    <path
       d="m 427,1060 c -28.9,-17.3 -18.7,-188 -28.1,-274 -1.96,-26.5 -61.2,-8.01 -79.7,-2.78 34.1,-95.1 78.4,-157 135,-210 -21.5,-28.7 -79.7,-11.3 -106,-7.02 37.8,-166 120,-249 205,-243 9.03,-9.92 -0.457,-21 6.71,-30.6 24.2,-23.7 61.6,-68.4 82.8,-68.3 84.1,-1.38 124,-29.4 178,-27.7 79.6,1.21 144,70.2 156,55.8 21.5,-42.8 -35.1,-95.8 -45.9,-128 79,10.3 154,79.6 187,135 20,18 37.2,125 51.1,126 70.4,-105 145,-93.9 216,-44.7 11.1,7.99 12.6,9.21 9.84,8.21 -81.4,5.68 -129,-19.8 -127,54.7 1.3,5.75 2.56,5.62 14.9,-1.54 75.2,-42.5 211,5.69 247,59.6 -7.08,6.45 -21.8,14.8 -22.2,24.6 6.37,32.8 36.8,56.8 49.4,83.2 -32.4,75 -16.5,78.7 14.3,216 -15,-6.43 -40.7,-32.9 -57.6,-27 -20.1,17.8 4.19,82.3 4.58,113 2.36,47.5 -18.7,149 -44,182 -7.4,4.94 -19.2,-6.16 -25.3,-10.2 -5.46,0.647 -11.1,0.5 -16.5,1.68 -12.6,-10.9 -22.1,-43.9 -19.3,-62.4 1.02,-3.89 -5.01,-41.9 -14.8,-93.3 -2.26,-11.9 -7.27,-41 -11.1,-64.7 -9.72,-59.6 -13.3,-74.8 -24,-101 -30.8,-86.9 -100,-137 -165,-159 -123,-29.7 -248,11.6 -366,-7.83 -61.8,-10.4 -98.3,-8.99 -141,5.65 -65.9,22.4 -89,89.4 -114,136 -34.7,65.3 -35.7,129 -49.3,186 -8.24,36.9 -27.5,162 -40.9,167 -7.7,0.169 -14.7,-6.01 -22.2,-4.73 -12.1,2.9 -25.9,17.9 -35.8,12.8 z M 836,931 c -45,-9 -60,-10 -101,-9 -24.9,-1.45 -143,16.4 -143,13.1 15.8,-27.6 61.7,-43.8 86.8,-52.1 16.2,-5.26 21,-6.21 57.1,-11.4 60.1,-4.56 95.2,-8.62 141,13.5 9.57,7.21 30.8,44.6 16.9,52 -12.6,2.18 -42.7,-3.29 -57.7,-6.1 z m 189,4.22 c 1.57,-15.5 16.8,-50.4 39.9,-57.6 46.4,-14.4 57.3,-15 119,-6.11 36.1,5.16 40.9,6.11 57.1,11.4 20.2,4.88 85.1,24.8 86.8,52.1 -41.2,-1.56 -101,-12.3 -143,-13.1 -40.6,-0.769 -55.8,0.603 -101,9.07 -21.6,2.75 -42.6,10.4 -59,4.23 z"
       id="path3350"
       inkscape:connector-curvature="0"
       style="fill:#433028" />
  </g>
  <g
     id="g3346"
     transform="matrix(0.56477994,0,0,0.56477994,409.04255,4.7111153)">
    <path
       d="m 860,1800 c -65.4,-26.4 -93.7,-53.9 -148,-93.2 -58.1,-42 -63.3,-46.9 -84,-80.5 -92,-150 -131,-400 -116,-633 -113,-76 -62,-192 -98,-159 28.8,-85.4 -22.3,-54.9 -45.9,-82.4 5.49,-46.7 4.51,-61.2 -26.5,-89.7 88.2,-45.3 20.7,-142 34.6,-161 15.4,-19.3 5.74,-34.1 -2.54,-50 12.1,-19.4 26.2,-39.8 38.6,-54.6 47.4,-35.2 87.7,-96.4 122,-134 43,16.6 142,-29 148,-81.4 26.9,-21.5 140,-31.4 122,-66.4 31.6,1.23 87.4,23.9 75.9,-2.45 34.6,3.75 67.5,9.9 95.9,9.89 60.8,1.03 104,-20.5 158,-22.6 141,37 27.3,46.4 304,295 -58.3,33.9 91.4,198 97.5,283 -45.6,39.1 3.04,131 -28.3,146 -13.5,-55 5.85,135 -86.5,168 17.9,281 -15.7,465 -110,636 -20.7,33.5 -25.8,38.5 -84,80.5 -53.2,39.4 -107,89.2 -169,100 -53.1,10.7 -143,14.4 -198,-7.05 z m 316,-100 c 27.7,-44.1 46.4,-104 25.4,-148 -35.7,-72.7 -91.8,-117 -181,-118 -11,0.038 -41.8,7.05 -52.9,6.71 -14.4,-0.301 -23.8,-6.58 -49.2,-6.71 -116,3.43 -144,45 -181,118 -20.4,53.1 -3.84,104 25.4,148 42.8,51.2 126,82.2 185,87.4 71.2,0.17 181,-17.6 229,-87.4 z M 623,1550 c 23.3,28 56.6,10.3 75.6,-11.7 25.6,-40.6 46.9,-88 79.8,-116 33.5,-29.3 96.3,-61 136,-58.6 16.5,0.944 24.7,7.42 51.3,7.46 19.8,0.476 34.4,-7.47 52,-7.36 36.5,4.22 87,21.3 117,43.9 54.4,32 64.5,89.2 98,130 20.9,19.8 51.1,39.2 74.7,12.9 103,-152 83,-370 85.9,-559 6.37,-43.2 19.4,-125 15.3,-159 -20,-124 -40,-210 -90,-320 -110,-89 -337,-78 -437,-32 -73,204 -219,180 -337,266 -18,74 -25,201 -8,251 -7,243 -15,373 89,553 z M 563,913 c 12.2,-10.8 55.6,-38.6 70.5,-39.1 11.8,1.55 21.3,5.85 33.2,8.41 43.7,16.3 156,-7.52 178,2.92 9.3,7.4 20.4,39.5 20.4,50 0,7.75 -1.62,9 -11.5,8.84 -90.6,-8.87 -221,-20.2 -291,-31.1 z m 516,30.6 c -4.99,0.421 -9.14,-1.3 -8.63,-12.7 1.04,-13.2 4.71,-42 15.4,-44.9 60.4,-4.95 110,4.76 175,-2.51 14.5,-0.747 26.7,-9.09 41.2,-9.48 20.6,1.28 59.8,18.4 68.4,39.7 -1.53,0.457 -17.5,1.57 -42,2.93 -16,0.888 -33.1,2.99 -64.7,7.95 -62.2,4.49 -127,13.2 -185,19 z"
       id="path3350-6"
       inkscape:connector-curvature="0"
       style="fill:#503e27" />
    <path
       d="m 552,1100 c -10.7,-26.1 -15.5,-52.2 -19.3,-79.2 -7.93,-0.956 -16.5,-1.99 -23.4,-2.81 -0.61,-9.21 -1.17,-24.9 -0.843,-34.5 6.54,-0.658 13.8,-1.76 23.1,-2.41 2.47,-7.63 2.75,-15.4 6.28,-23.2 13.9,-13.2 266,-31.1 355,2.57 4.41,4.15 0.926,8.69 7.03,23.9 39.1,-14.5 96.3,-10.7 133,-0.391 1.45,-14 2.49,-15 7.75,-23.9 4.35,-12.2 239,-36.9 350,-4.49 4.13,7.83 7.84,17.4 9.46,25.8 5.54,1.32 19.8,-1.28 23.9,2.03 0.397,12.1 -0.267,23 -1.28,35 -9.16,1.26 -20.8,1.54 -22.3,0.622 -5.54,20.9 -11.8,61.3 -19.8,80.2 -33.4,37.8 -229,64 -319,17.3 -28.8,-15.9 -25.7,-94.6 -28.3,-120 -35.2,-14.4 -104,-20.7 -135,0.0764 -3.55,34.3 -0.226,94.8 -28.1,120 -83.3,47 -258,22.8 -319,-16.4 z m 315,11.7 c 19.5,-14.1 27.5,-81.2 20.1,-145 -39.8,-24.1 -313,-26.1 -341,-1.27 -4.43,39 -5.43,94.9 13.6,130 61.2,38 222,56.5 307,15.9 z m 505,-13.1 c 14.2,-23.9 31,-117 10.3,-138 -48.1,-12.9 -273,-27.4 -336,5.81 -6.45,26.6 -9.1,121 19.8,146 63.5,38.7 254,27.2 305,-13.1 z"
       id="path3348"
       inkscape:connector-curvature="0"
       style="fill:#323039" />
  </g>
  <g
     transform="matrix(0.54313348,0,0,0.54313348,-175.98471,744.39556)"
     id="g4186">
    <path
       d="m 551,758 c 13.9,-33.5 47.5,-75.9 81.6,-85.9 78.6,-6.73 158,-0.487 232,23.5 9.42,10.2 23.6,67.5 15.2,73.5 -72.3,-9.67 -165,-59.1 -252,-13.2 m 655,-7.22 c -93.7,-18.4 -176,30.7 -243,20.4 1.19,-14.9 -1.83,-66.5 15.2,-73.5 75.4,-16.1 165,-38.7 232,-23.5 52.8,12 75.1,66.4 86,90.3 m 44.7,8.17 c -0.068,-59.7 -8.24,-123 -20.9,-176 -12.4,-43.8 -12.5,-89.6 -26.2,-126 -16.3,-43.8 -31.1,-67.3 -67.6,-95.4 -69.8,-29.4 -185,-31.2 -257,-23.6 -60.7,7.36 -124,21.2 -177,27.5 -49.8,12.9 -106,-3.13 -151,-0.264 -53.8,21.4 -129,40.6 -163,77.8 -31,39.8 -39.9,77.2 -44.6,116 -7.83,76 -4.74,134 -7.7,201 l -35.2,-1.12 c -7.1,-74.5 -30.5,-171 -14,-238 5.76,-22.9 5.95,-25.5 6.17,-79.9 1.54,-65.8 -4.43,-127 32.1,-184 38.4,-40.6 69,-102 108,-130 30.1,-21.4 61.1,-21 93.2,-36.9 21.7,-13.7 43.5,-26.8 64.3,-31.5 6.51,-1.44 9.71,-1.54 24.8,-0.837 90,0.632 89.3,-20.9 177,-19.5 14.5,17.3 28,20.3 40.4,20.3 39.4,-1.77 77.4,-13.2 114,-12.4 35.9,6.01 57.9,39.1 88.3,53.2 37.7,14.4 83.7,30.7 104,57.7 8.28,11 12.4,17.3 40.9,62.9 33.5,53.6 44.9,73.7 66.8,118 23.3,47 26.5,55.5 34.3,91.8 11.6,65.4 19.3,119 18.4,188 6.96,65.5 -22.7,103 -20.4,144 z"
       id="path4190"
       inkscape:connector-curvature="0"
       style="fill:#614c36" />
    <path
       d="m 705,1110 c -67.3,0.892 -143,-28.9 -181,-84.1 -21.3,-38.5 -35.6,-74.2 -38.3,-114 -1.41,-22.5 -3.94,-32.8 -12.2,-49.9 -9.43,-16.3 -15,-17.7 -29.4,-25.1 -1.57,-9.83 -0.858,-49.7 4.49,-64.1 34.6,-12.9 67.5,-9.43 103,-17.8 70.6,-4.89 152,-3.4 217,14 37.5,10.9 85.7,37 107,49.6 52.1,-7.66 107,-6.12 162,-0.105 19.3,-14.1 48,-33.3 88.5,-42.5 66.7,-21.2 146,-30.8 259,-18.3 29.4,5.37 61.1,5.58 86.4,15.3 5.92,7.3 5.05,54.9 3.78,61.9 -11.2,10.3 -23.8,13.8 -30.6,28.2 -7.28,15.6 -9.71,25.6 -11.2,46.1 -3.92,39.8 -17.8,86 -39.3,118 -46.1,58.6 -110,80.3 -174,82.3 -133,1.12 -189,-99.1 -209,-173 -9.82,-21.8 1.67,-38.3 -0.985,-56 -22.5,-17.5 -70.1,-28.6 -99.9,2.48 -2.68,17.3 9.6,31.6 -1.05,53.5 -23,94 -100,174 -205,174 z M 880,922 c 1,-65 -48,-110 -106,-128 -77,-16 -182,-36 -236,31 -17.7,22.5 -25.6,48.9 -25.6,84.7 0.0624,56.1 22.8,107 61.3,138 42.6,34.5 97.8,42.8 134,42.4 104,-3.62 172,-66.7 173,-167 z m 342,169 c 52.1,-0.065 125,-37.4 151,-72.5 29.9,-46.9 41.3,-105 27.6,-156 -15,-52.5 -63.8,-82.9 -137,-85.5 -54.8,-1.91 -129,14.4 -166,36.6 -39.5,23.4 -60.3,58.9 -60.3,112 2.2,104 93.7,164 186,165 z M 506,816 c 9.18,-3.43 10.4,-7.55 3.82,-12.3 -9.72,-6.01 -41,-3.15 -43.5,2.71 3.5,7.88 34.3,11.4 39.7,9.63 z m 946,-10.4 c -3.79,-8.5 -29.2,-8.11 -37.6,-4.2 -12,6.88 -9.38,12.3 0.938,16 6.84,3.01 35,-3.78 36.6,-11.8 z"
       id="path4188"
       inkscape:connector-curvature="0"
       style="fill:#050414" />
  </g>
</svg>
