<?xml version="1.0" encoding="utf-8"?>
<!-- Generator: Adobe Illustrator 19.0.0, SVG Export Plug-In . SVG Version: 6.00 Build 0)  -->
<svg version="1.1" id="Lag_1" xmlns="http://www.w3.org/2000/svg" xmlns:xlink="http://www.w3.org/1999/xlink" x="0px" y="0px"
	 viewBox="0 0 29 24.2" style="enable-background:new 0 0 29 24.2;" xml:space="preserve">
<style type="text/css">
	.st0{fill-rule:evenodd;clip-rule:evenodd;fill:#0D0D0D;}
</style>
<path class="st0" d="M27,4h-2.3C24.9,4.3,25,4.6,25,5l-3,12c0,1.1-0.9,2-2,2H6c-1.1,0-2-0.9-2-2L0,5c0-1.1,0.9-2,2-2h19.3
	C21.1,2.7,21,2.4,21,2c0-1.1,0.9-2,2-2h4c1.1,0,2,0.9,2,2C29,3.1,28.1,4,27,4z M7,7.5c0-0.6-0.4-1-1-1H5c-0.6,0-1,0.4-1,1v2
	c0,0.6,0.4,1,1,1h1c0.6,0,1-0.4,1-1V7.5z M7.5,12.4c-0.6,0-1,0.4-1,1v2c0,0.6,0.4,1,1,1h1c0.6,0,1-0.4,1-1v-2c0-0.6-0.4-1-1-1H7.5z
	 M12,7.5c0-0.6-0.4-1-1-1h-1c-0.6,0-1,0.4-1,1v2c0,0.6,0.4,1,1,1h1c0.6,0,1-0.4,1-1V7.5z M12.5,12.4c-0.6,0-1,0.4-1,1v2
	c0,0.6,0.4,1,1,1h1c0.6,0,1-0.4,1-1v-2c0-0.6-0.4-1-1-1H12.5z M17,7.5c0-0.6-0.4-1-1-1h-1c-0.6,0-1,0.4-1,1v2c0,0.6,0.4,1,1,1h1
	c0.6,0,1-0.4,1-1V7.5z M17.5,12.4c-0.6,0-1,0.4-1,1v2c0,0.6,0.4,1,1,1h1c0.6,0,1-0.4,1-1v-2c0-0.6-0.4-1-1-1H17.5z M22,7.5
	c0-0.6-0.4-1-1-1h-1c-0.6,0-1,0.4-1,1v2c0,0.6,0.4,1,1,1h1c0.6,0,1-0.4,1-1V7.5z M7.4,19.4c1.3,0,2.4,1.1,2.4,2.4
	c0,1.3-1.1,2.4-2.4,2.4c-1.3,0-2.4-1.1-2.4-2.4C5,20.5,6.1,19.4,7.4,19.4z M18.9,19.2c1.3,0,2.4,1.1,2.4,2.4c0,1.3-1.1,2.4-2.4,2.4
	c-1.3,0-2.4-1.1-2.4-2.4C16.5,20.3,17.5,19.2,18.9,19.2z"/>
</svg>
