<?xml version="1.0" encoding="UTF-8" standalone="no"?>
<svg xmlns="http://www.w3.org/2000/svg" height="1.92e3" width="1.92e3">
<g id="g3348" transform="translate(4.31 -15.1)">
<path id="path3352" fill="#565453" d="m842 1.15e3c36.1-33.6 62.6-103 64.2-157-1.56-34.5-47.5-40.5-72.3-43.7-52-6.44-109-8.65-167 2.35-37.7 7.97-62.3 14.8-68.4 22.8-10.8 14.2-11.6 66.8-1.61 111 6.57 25.2 16.2 58.2 38.4 68.9 40.1 13.2 181 15.4 206-4.97zm451-0.033c10.3-5.31 23.8-33.6 30.6-63.9 8.23-36.9 9.36-83.7 2.5-103-2.44-6.95-5.42-10.7-10.9-13.7-9.54-5.17-33.6-11.4-66.1-17.3-73-11.9-70.6-10.5-160-0.0626-22.8 2.75-42.7 7.67-59.6 14.7-11.9 4.96-15.2 10.8-15 26.7 8.83 50.8 16 110 64.2 157 27.2 12.7 153 29.8 214-0.033zm-790-162c8.36-4.47 47.6-15.9 65.8-19.4 137-41.4 221-41.4 339-14.4 11.3 2.86 22.3 5.61 24.4 6.12 18.9-2.2 43.5-2.21 60.9 0 2.06-0.513 13-3.27 24.4-6.12 39.9-10 69.9-14.9 111-18 65.6-4.98 132 3.56 206 26.5 26.8 5.31 55.8 14 81.6 23l9.07 43.8c-23.2-10.9-52.7-8.57-72.5 0.685-4.35 2.12-4.21 1.7-7.4 23.3-5.36 36.4-16.9 70.1-32.1 94.2-9.35 14.8-16.4 17.8-50.7 21.6-71.1 7.8-120 7.08-163-2.38-21.4-4.73-29.6-12.6-49.7-37.4-26.5-36.4-39.9-130-55.3-140-16.5-8.21-45.3-9.71-63.3 0-17.3 34.1-24.1 79.8-43.8 120-13.5 26.8-28.1 44.1-43.9 52-46.4 17.2-120 16.6-205 4.3-37.2-8.88-51.2-72.3-57.3-112-3.19-21.6-3.06-21.2-7.4-23.3-21.9-7.83-47.7-9.06-77.5 0.568"/>
<path id="path3350" fill="#433028" d="m427 1.06e3c-28.9-17.3-18.7-188-28.1-274-1.96-26.5-61.2-8.01-79.7-2.78 34.1-95.1 78.4-157 135-210-21.5-28.7-79.7-11.3-106-7.02 37.8-166 120-249 205-243 9.03-9.92-0.457-21 6.71-30.6 24.2-23.7 61.6-68.4 82.8-68.3 84.1-1.38 124-29.4 178-27.7 79.6 1.21 144 70.2 156 55.8 21.5-42.8-35.1-95.8-45.9-128 79 10.3 154 79.6 187 135 20 18 37.2 125 51.1 126 70.4-105 145-93.9 216-44.7 11.1 7.99 12.6 9.21 9.84 8.21-81.4 5.68-129-19.8-127 54.7 1.3 5.75 2.56 5.62 14.9-1.54 75.2-42.5 211 5.69 247 59.6-7.08 6.45-21.8 14.8-22.2 24.6 6.37 32.8 36.8 56.8 49.4 83.2-32.4 75-16.5 78.7 14.3 216-15-6.43-40.7-32.9-57.6-27-20.1 17.8 4.19 82.3 4.58 113 2.36 47.5-18.7 149-44 182-7.4 4.94-19.2-6.16-25.3-10.2-5.46 0.647-11.1 0.5-16.5 1.68-12.6-10.9-22.1-43.9-19.3-62.4 1.02-3.89-5.01-41.9-14.8-93.3-2.26-11.9-7.27-41-11.1-64.7-9.72-59.6-13.3-74.8-24-101-30.8-86.9-100-137-165-159-123-29.7-248 11.6-366-7.83-61.8-10.4-98.3-8.99-141 5.65-65.9 22.4-89 89.4-114 136-34.7 65.3-35.7 129-49.3 186-8.24 36.9-27.5 162-40.9 167-7.7 0.169-14.7-6.01-22.2-4.73-12.1 2.9-25.9 17.9-35.8 12.8zm409-129c-45-9-60-10-101-9-24.9-1.45-143 16.4-143 13.1 15.8-27.6 61.7-43.8 86.8-52.1 16.2-5.26 21-6.21 57.1-11.4 60.1-4.56 95.2-8.62 141 13.5 9.57 7.21 30.8 44.6 16.9 52-12.6 2.18-42.7-3.29-57.7-6.1zm189 4.22c1.57-15.5 16.8-50.4 39.9-57.6 46.4-14.4 57.3-15 119-6.11 36.1 5.16 40.9 6.11 57.1 11.4 20.2 4.88 85.1 24.8 86.8 52.1-41.2-1.56-101-12.3-143-13.1-40.6-0.769-55.8 0.603-101 9.07-21.6 2.75-42.6 10.4-59 4.23z"/>
</g>
</svg>
