<?xml version="1.0" encoding="UTF-8" standalone="no"?>
<svg xmlns="http://www.w3.org/2000/svg" height="1.92e3" width="1.92e3">
<g id="g3346">
<path id="path3350" fill="#503e27" d="m860 1.8e3c-65.4-26.4-93.7-53.9-148-93.2-58.1-42-63.3-46.9-84-80.5-92-150-131-400-116-633-113-76-62-192-98-159 28.8-85.4-22.3-54.9-45.9-82.4 5.49-46.7 4.51-61.2-26.5-89.7 88.2-45.3 20.7-142 34.6-161 15.4-19.3 5.74-34.1-2.54-50 12.1-19.4 26.2-39.8 38.6-54.6 47.4-35.2 87.7-96.4 122-134 43 16.6 142-29 148-81.4 26.9-21.5 140-31.4 122-66.4 31.6 1.23 87.4 23.9 75.9-2.45 34.6 3.75 67.5 9.9 95.9 9.89 60.8 1.03 104-20.5 158-22.6 141 37 27.3 46.4 304 295-58.3 33.9 91.4 198 97.5 283-45.6 39.1 3.04 131-28.3 146-13.5-55 5.85 135-86.5 168 17.9 281-15.7 465-110 636-20.7 33.5-25.8 38.5-84 80.5-53.2 39.4-107 89.2-169 100-53.1 10.7-143 14.4-198-7.05zm316-100c27.7-44.1 46.4-104 25.4-148-35.7-72.7-91.8-117-181-118-11 0.038-41.8 7.05-52.9 6.71-14.4-0.301-23.8-6.58-49.2-6.71-116 3.43-144 45-181 118-20.4 53.1-3.84 104 25.4 148 42.8 51.2 126 82.2 185 87.4 71.2 0.17 181-17.6 229-87.4zm-553-150c23.3 28 56.6 10.3 75.6-11.7 25.6-40.6 46.9-88 79.8-116 33.5-29.3 96.3-61 136-58.6 16.5 0.944 24.7 7.42 51.3 7.46 19.8 0.476 34.4-7.47 52-7.36 36.5 4.22 87 21.3 117 43.9 54.4 32 64.5 89.2 98 130 20.9 19.8 51.1 39.2 74.7 12.9 103-152 83-370 85.9-559 6.37-43.2 19.4-125 15.3-159-20-124-40-210-90-320-110-89-337-78-437-32-73 204-219 180-337 266-18 74-25 201-8 251-7 243-15 373 89 553zm-60-637c12.2-10.8 55.6-38.6 70.5-39.1 11.8 1.55 21.3 5.85 33.2 8.41 43.7 16.3 156-7.52 178 2.92 9.3 7.4 20.4 39.5 20.4 50 0 7.75-1.62 9-11.5 8.84-90.6-8.87-221-20.2-291-31.1zm516 30.6c-4.99 0.421-9.14-1.3-8.63-12.7 1.04-13.2 4.71-42 15.4-44.9 60.4-4.95 110 4.76 175-2.51 14.5-0.747 26.7-9.09 41.2-9.48 20.6 1.28 59.8 18.4 68.4 39.7-1.53 0.457-17.5 1.57-42 2.93-16 0.888-33.1 2.99-64.7 7.95-62.2 4.49-127 13.2-185 19z"/>
<path id="path3348" fill="#323039" d="m552 1.1e3c-10.7-26.1-15.5-52.2-19.3-79.2-7.93-0.956-16.5-1.99-23.4-2.81-0.61-9.21-1.17-24.9-0.843-34.5 6.54-0.658 13.8-1.76 23.1-2.41 2.47-7.63 2.75-15.4 6.28-23.2 13.9-13.2 266-31.1 355 2.57 4.41 4.15 0.926 8.69 7.03 23.9 39.1-14.5 96.3-10.7 133-0.391 1.45-14 2.49-15 7.75-23.9 4.35-12.2 239-36.9 350-4.49 4.13 7.83 7.84 17.4 9.46 25.8 5.54 1.32 19.8-1.28 23.9 2.03 0.397 12.1-0.267 23-1.28 35-9.16 1.26-20.8 1.54-22.3 0.622-5.54 20.9-11.8 61.3-19.8 80.2-33.4 37.8-229 64-319 17.3-28.8-15.9-25.7-94.6-28.3-120-35.2-14.4-104-20.7-135 0.0764-3.55 34.3-0.226 94.8-28.1 120-83.3 47-258 22.8-319-16.4zm315 11.7c19.5-14.1 27.5-81.2 20.1-145-39.8-24.1-313-26.1-341-1.27-4.43 39-5.43 94.9 13.6 130 61.2 38 222 56.5 307 15.9zm505-13.1c14.2-23.9 31-117 10.3-138-48.1-12.9-273-27.4-336 5.81-6.45 26.6-9.1 121 19.8 146 63.5 38.7 254 27.2 305-13.1z"/>
</g>
</svg>
