<?xml version="1.0" encoding="UTF-8" standalone="no"?>
<!-- Created with Inkscape (http://www.inkscape.org/) -->

<svg
   xmlns:dc="http://purl.org/dc/elements/1.1/"
   xmlns:cc="http://creativecommons.org/ns#"
   xmlns:rdf="http://www.w3.org/1999/02/22-rdf-syntax-ns#"
   xmlns:svg="http://www.w3.org/2000/svg"
   xmlns="http://www.w3.org/2000/svg"
   xmlns:sodipodi="http://sodipodi.sourceforge.net/DTD/sodipodi-0.dtd"
   xmlns:inkscape="http://www.inkscape.org/namespaces/inkscape"
   id="svg3336"
   version="1.1"
   inkscape:version="0.91 r13725"
   width="1920"
   height="675"
   viewBox="0 0 1920 675"
   sodipodi:docname="Banner_Shop.svg">
  <metadata
     id="metadata3342">
    <rdf:RDF>
      <cc:Work
         rdf:about="">
        <dc:format>image/svg+xml</dc:format>
        <dc:type
           rdf:resource="http://purl.org/dc/dcmitype/StillImage" />
        <dc:title></dc:title>
      </cc:Work>
    </rdf:RDF>
  </metadata>
  <defs
     id="defs3340" />
  <sodipodi:namedview
     pagecolor="#ffffff"
     bordercolor="#666666"
     borderopacity="1"
     objecttolerance="10"
     gridtolerance="10"
     guidetolerance="10"
     inkscape:pageopacity="0"
     inkscape:pageshadow="2"
     inkscape:window-width="1920"
     inkscape:window-height="1027"
     id="namedview3338"
     showgrid="false"
     inkscape:zoom="0.45963542"
     inkscape:cx="501.46043"
     inkscape:cy="163.24927"
     inkscape:window-x="-8"
     inkscape:window-y="-8"
     inkscape:window-maximized="1"
     inkscape:current-layer="svg3336" />
  <g
     id="g3350"
     transform="translate(7.6147309,32.634561)">
    <path
       style="fill:#464646"
       d="m 173.43039,538.21315 c -15.11704,-2.13793 -26.94178,-10.03383 -32.05996,-21.40788 -2.69864,-5.99716 -2.917,-19.14141 -0.43619,-26.25696 3.82326,-10.966 13.93522,-20.66107 24.37365,-23.36876 6.65989,-1.72755 19.24197,-1.58477 24.73747,0.28072 C 202.52589,471.69688 210,482.63559 210,496.66485 c 0,7.73158 0.0466,7.71015 -16.75975,7.71015 -8.15034,0 -20.58081,0.27634 -27.62327,0.61409 -12.69651,0.60892 -12.80448,0.63294 -12.80448,2.84985 0,6.65349 9.83922,17.05854 18.62243,19.69332 5.66099,1.69819 18.04354,2.03147 29.55984,0.79562 l 6.46352,-0.69362 -0.52532,3.91655 c -0.28893,2.15409 -0.73831,4.12953 -0.99863,4.38984 -1.98419,1.98419 -23.77167,3.50745 -32.50395,2.2725 z m 22.33233,-47.24785 c 0.4246,-5.1505 -3.3287,-11.16236 -8.54546,-13.68775 -8.81564,-4.26759 -23.07932,-1.62574 -28.96077,5.36396 -3.16995,3.76728 -6.12829,11.35523 -4.7585,12.20528 0.55122,0.34208 10.22014,0.41102 21.48649,0.15321 l 20.48427,-0.46875 0.29397,-3.56595 z m 47.51853,47.51769 c -7.56468,-1.92919 -10.96654,-3.61709 -13.95345,-6.92324 -6.75067,-7.47217 -6.58323,-17.66841 0.42081,-25.62542 6.35382,-7.21831 16.22337,-10.51493 34.99585,-11.68926 l 10.41179,-0.65132 -0.0217,-5.35181 c -0.0391,-9.59627 -5.67799,-12.92944 -21.87342,-12.92944 -4.62476,0 -11.66569,0.62317 -15.64653,1.38484 -3.98084,0.76166 -7.61683,1.15064 -8.07998,0.86439 -0.96054,-0.59364 -0.0369,-6.85625 1.2517,-8.48606 2.72774,-3.45032 37.83812,-4.10205 45.30748,-0.84101 5.63025,2.45809 9.37822,5.62852 11.35244,9.60304 1.58429,3.18952 1.79283,6.15751 1.96337,27.94355 0.10494,13.40625 0.31588,25.62151 0.46875,27.14502 0.25929,2.58415 0.004,2.82513 -3.80997,3.59127 -5.16663,1.03797 -8.26999,0.27439 -9.06498,-2.23043 -0.41146,-1.29639 -1.14573,-1.78242 -2.17186,-1.43765 -0.85264,0.28648 -4.52947,1.57419 -8.17073,2.86156 -6.4469,2.27932 -19.32445,3.80613 -23.37952,2.77197 z m 17.00421,-9.72302 c 3.68043,-0.47831 8.65081,-1.82146 11.04529,-2.98479 l 4.3536,-2.11514 -0.26405,-9.87689 -0.26405,-9.8769 -6.01105,-0.28305 c -16.58803,-0.78109 -29.11836,4.52557 -30.96166,13.11243 -1.35834,6.32764 2.28653,10.83034 9.78521,12.08816 5.31149,0.89094 4.95577,0.89279 12.31671,-0.0638 z m 372.99579,9.71679 c -6.95768,-1.04032 -12.6654,-2.42062 -13.13209,-3.17573 -0.58113,-0.94028 2.24324,-13.17401 3.31846,-14.3739 0.39015,-0.43539 4.62514,-0.11898 9.41108,0.70312 10.0197,1.72115 23.98886,1.94569 30.7561,0.49437 8.30453,-1.78099 11.36053,-6.72592 8.07873,-13.07222 -1.81775,-3.51513 -6.87473,-6.42982 -21.21276,-12.22637 -17.5145,-7.08074 -24.43958,-12.41925 -27.60069,-21.27725 -5.22644,-14.64544 4.55343,-29.01148 22.48573,-33.03019 11.4008,-2.55498 40.4691,-1.71557 43.46658,1.25518 0.96967,0.96103 0.92051,2.49574 -0.25967,8.10614 -0.8007,3.80637 -1.63945,7.10433 -1.86391,7.32878 -0.22446,0.22445 -4.93895,-0.33507 -10.47666,-1.24339 -19.20589,-3.15023 -32.18965,-0.2293 -32.18965,7.24163 0,5.88534 2.2417,7.46834 20.2545,14.30281 21.90329,8.31064 30.01576,15.88117 31.06823,28.99279 1.15101,14.33912 -6.59748,23.59495 -23.66648,28.27037 -5.52214,1.51259 -31.89735,2.68175 -38.4375,1.70386 z M 81.081465,536.05875 C 80.831056,535.3905 80.520442,516.49219 80.391213,494.0625 l -0.234963,-40.78125 -15.564684,-0.0935 c -8.560576,-0.0514 -16.048858,-0.39272 -16.640625,-0.75844 -1.225324,-0.7573 -1.425968,-6.05145 -0.29676,-7.83026 0.58864,-0.92726 9.32897,-1.12941 40.53252,-0.9375 l 39.782049,0.24469 0,4.21875 0,4.21875 -16.40625,0.46875 -16.40625,0.46875 L 94.6875,495 l -0.46875,41.71875 -6.340999,0.2775 c -4.540576,0.19871 -6.470269,-0.0675 -6.796286,-0.9375 z m 229.823395,0.39126 c -0.27752,-0.44904 -0.0782,-8.75758 0.44297,-18.46344 0.93999,-17.50651 0.13685,-35.95953 -1.95933,-45.01782 -1.1629,-5.02527 0.0153,-6.02437 7.45517,-6.3221 l 6.0075,-0.2404 0.65324,3.09445 c 0.89249,4.22778 1.48228,4.58512 4.42411,2.68037 6.50416,-4.21123 11.01992,-5.58782 19.78926,-6.03256 10.68589,-0.54194 17.37524,0.80329 22.51737,4.52823 4.5075,3.26522 5.2199,3.3337 9.23205,0.88748 12.36918,-7.54155 33.23708,-7.51639 41.85525,0.0504 5.90886,5.18805 6.3564,7.66896 6.67071,36.97907 0.18375,17.13468 -0.0556,26.65693 -0.68937,27.42188 -0.58749,0.70912 -3.28651,1.17187 -6.83504,1.17187 -3.59583,0 -6.20542,-0.4533 -6.74637,-1.17187 -0.52117,-0.6923 -0.60418,-4.81665 -0.20286,-10.07813 0.37363,-4.89844 0.70971,-15.65625 0.74682,-23.90625 0.0819,-18.21829 -0.92006,-21.48413 -7.58101,-24.70865 -7.62495,-3.69118 -19.51899,-2.26426 -26.68476,3.20133 l -3.09694,2.36216 -0.24869,26.91632 -0.24869,26.91637 -7.03125,0 -7.03125,0 0.35264,-24.84375 c 0.39299,-27.68664 0.05,-29.79176 -5.49859,-33.74266 -2.19337,-1.56183 -4.77233,-2.27218 -9.46931,-2.60825 -7.71249,-0.55182 -13.56785,0.89061 -18.69649,4.60577 l -3.69073,2.67356 -0.24876,26.95767 -0.24876,26.95766 -6.71716,0.27383 c -3.69443,0.15061 -6.94421,-0.0936 -7.22173,-0.54257 z m 177.98305,-45.98051 0.0184,-46.77224 21.5625,-0.64081 c 31.50619,-0.93632 42.49435,1.08371 49.96167,9.18479 4.50877,4.89145 6.12761,10.86619 4.82078,17.79229 -1.49934,7.9464 -6.3039,13.56691 -15.64183,18.29827 -2.1914,1.11034 -3.98437,2.18108 -3.98437,2.37942 0,0.19834 1.82008,1.42725 4.04462,2.73092 2.22454,1.30367 5.63115,4.40235 7.57023,6.88596 3.94974,5.05887 16.16763,29.28744 17.08696,33.88412 l 0.59502,2.97528 -11.72114,0 c -8.27116,0 -11.98647,-0.34493 -12.62256,-1.17188 -0.49578,-0.64453 -2.24608,-4.54687 -3.88955,-8.67187 -1.64347,-4.125 -4.79093,-10.875 -6.99436,-15 -4.9909,-9.34341 -8.43524,-11.60268 -18.89465,-12.39372 -10.50399,-0.79442 -10.17458,-1.45015 -9.74828,19.40542 l 0.35492,17.3633 -11.26834,0.2615 -11.26833,0.26149 0.0184,-46.77224 z m 46.69132,-7.89373 c 4.267,-1.9684 5.71584,-3.20259 6.79687,-5.78986 3.21603,-7.69703 0.90916,-14.60282 -5.8815,-17.60664 -4.96504,-2.19628 -17.69755,-3.2902 -22.7446,-1.95412 l -3.28125,0.86862 0.34242,13.06249 c 0.18834,7.18437 0.55862,13.4258 0.82287,13.86985 0.26425,0.44403 4.53985,0.63724 9.50133,0.42933 7.26741,-0.30452 10.075,-0.86428 14.44386,-2.87967 z m 54.04123,54.41843 c -0.0369,-0.1515 -0.19946,-13.56451 -0.3613,-29.8067 -0.16184,-16.24219 -0.69812,-31.53858 -1.19173,-33.99198 -0.62494,-3.10612 -0.5864,-4.70894 0.12692,-5.2781 0.56342,-0.44956 4.21593,-1.10764 8.11669,-1.4624 l 7.0923,-0.64501 -0.061,35.45437 -0.0611,35.45437 -6.79688,0.27545 c -3.73828,0.15149 -6.82704,0.15149 -6.86391,0 z m 123.75705,-0.50983 c -0.41123,-4.81989 0.0627,-92.29288 0.50396,-93.00677 0.80221,-1.29802 20.80417,-1.30721 21.60593,-0.01 0.32893,0.53222 0.54979,8.96972 0.49083,18.75 -0.059,9.78028 0.13962,17.78233 0.44132,17.78233 3.56632,0 14.18369,-11.00438 26.7734,-27.74931 l 6.41372,-8.53057 11.05604,-0.55074 c 6.08082,-0.30292 11.41435,-0.19803 11.8523,0.23306 0.43793,0.4311 0.52033,1.65315 0.1831,2.71566 -0.67097,2.11406 -25.99035,28.20053 -31.74229,32.70399 l -3.57544,2.79936 7.80271,7.86116 c 10.76459,10.84521 32.93862,40.67236 33.72228,45.36114 0.2995,1.7919 -0.2774,1.88652 -13.01725,2.13494 l -13.33062,0.25994 -2.27125,-4.47869 c -3.08066,-6.0748 -17.47579,-26.13571 -22.56716,-31.44935 -4.4508,-4.64511 -9.37946,-7.68452 -10.91859,-6.73329 -0.60723,0.37528 -0.92137,7.84091 -0.85959,20.42893 0.0535,10.91064 0.0747,20.36486 0.047,21.0094 -0.0374,0.86959 -2.95225,1.17187 -11.30038,1.17187 -6.1875,0 -11.27699,-0.31641 -11.30999,-0.70312 z M 593.69056,454.02832 c -1.14989,-0.22211 -2.94286,-1.48717 -3.98438,-2.81126 -4.51888,-5.74481 -0.0894,-13.40456 7.75153,-13.40456 5.66208,0 9.10479,2.70769 9.10479,7.16093 0,4.48127 -1.45032,6.8198 -5.2016,8.38719 -3.20687,1.33991 -3.88476,1.39892 -7.67034,0.66771 z M 1615.7551,439.70931 c -15.4216,-1.71179 -29.918,-7.6624 -43.3821,-17.80785 -15.9583,-12.025 -26.3012,-27.78504 -31.708,-48.31569 -3.0337,-11.51963 -4.0643,-33.59286 -2.2436,-48.05736 3.5574,-28.26279 16.1918,-50.59224 37.871,-66.93133 16.1298,-12.15664 32.5781,-17.74322 52.2968,-17.76238 22.5623,-0.0219 40.6003,6.76299 57.3674,21.57837 20.7977,18.37696 30.6022,42.13734 30.5968,74.14943 -0.01,32.18269 -9.4806,57.30223 -28.9641,76.78564 -6.3328,6.33288 -16.9054,14.04948 -24.4643,17.85569 -13.6691,6.88301 -32.1277,10.19734 -47.3699,8.50548 z m 28.6741,-22.79113 c 9.2356,-3.14852 16.2027,-7.81226 24.17,-16.17923 11.1751,-11.73568 16.6243,-22.29053 20.0401,-38.81774 1.5746,-7.6179 1.7831,-11.46804 1.3982,-25.82746 -0.5142,-19.18889 -1.8845,-25.61827 -8.192,-38.4375 -8.3733,-17.01732 -27.0597,-31.70731 -44.7641,-35.19044 -8.215,-1.61621 -22.7139,-0.73411 -29.2965,1.78237 -15.4674,5.9132 -30.7009,21.34407 -37.8481,38.33842 -7.1428,16.98415 -8.7449,44.2828 -3.7973,64.70333 5.6679,23.39348 24.4841,43.48324 46.8293,49.99881 8.5495,2.49293 23.5802,2.3159 31.4604,-0.37056 z m -366.6167,20.77026 c -15.937,-1.29626 -31.8913,-4.66033 -31.8552,-6.71688 0.033,-1.87114 4.3659,-20.35728 4.8959,-20.88723 0.2708,-0.27091 4.2327,0.57305 8.8041,1.87544 13.2745,3.78198 23.8531,5.22819 38.1999,5.2223 25.4291,-0.0104 38.6246,-4.26567 46.0193,-14.84014 2.5095,-3.58851 2.8806,-4.97943 3.1699,-11.88131 0.3071,-7.32737 0.1374,-8.17394 -2.7098,-13.51577 -5.4933,-10.30659 -13.1125,-15.6223 -40.5686,-28.30397 -22.4276,-10.3591 -32.6931,-16.2677 -39.896,-22.96326 -10.9002,-10.1324 -15.1318,-19.93786 -15.1108,-35.01521 0.02,-14.18765 4.6819,-25.43135 14.1989,-34.24234 13.9032,-12.87193 32.5209,-17.2478 65.7066,-15.44357 14.9593,0.81331 28.0503,2.61549 29.4954,4.06053 0.8502,0.85027 -1.7375,20.11132 -2.9114,21.67034 -0.8953,1.18888 -2.2113,1.06821 -9.9382,-0.91123 -13.1687,-3.3735 -24.5549,-4.52747 -39.6243,-4.01583 -14.9823,0.50868 -20.8316,2.10128 -27.2936,7.43121 -5.0378,4.15517 -7.1007,9.14059 -7.1153,17.19473 -0.01,5.56501 0.4087,7.2955 2.7541,11.38494 4.7432,8.26993 10.6748,12.05162 37.9979,24.22581 35.4616,15.80045 49.9051,27.94192 55.7793,46.88925 2.326,7.50257 2.7392,21.39116 0.8674,29.15602 -5.83,24.18532 -25.8799,36.93267 -62.4422,39.6997 -14.2259,1.07662 -14.2847,1.07646 -28.4233,-0.0735 z m 107.9243,-3.53701 c -1.0412,-0.65949 -1.2246,-3.91172 -0.9375,-16.62627 0.4731,-20.94937 0.459,-142.58828 -0.019,-159.10145 -0.301,-10.4138 -0.1156,-13.147 0.9375,-13.81377 1.4508,-0.91853 21.4133,-1.18226 23.679,-0.31282 1.2576,0.48256 1.3597,5.29466 0.865,40.78125 l -0.5603,40.23413 44.2411,0 c 38.7987,0 44.3086,-0.17602 44.7901,-1.43086 0.302,-0.78697 0.077,-18.79669 -0.5001,-40.02158 -0.8374,-30.80025 -0.8122,-38.74119 0.1246,-39.33604 1.5404,-0.97807 23.3234,-0.96771 24.8668,0.0118 0.956,0.60671 1.0037,5.67942 0.2402,25.53252 -1.236,32.14077 -1.2213,100.75956 0.029,135.78208 0.8025,22.47752 0.7583,27.71246 -0.239,28.34501 -1.3556,0.85983 -22.3148,1.10628 -24.4486,0.28748 -1.1545,-0.44304 -1.2806,-6.8851 -0.8806,-45 L 1498.3922,345 l -44.335,0 -44.3352,0 0.681,44.40284 c 0.627,40.88695 0.5578,44.45012 -0.8752,45 -2.3451,0.89992 -22.3062,0.68897 -23.791,-0.25141 z m 345.6404,-0.32331 c -1.3047,-1.03215 -1.3891,-3.18379 -0.7084,-18.04687 1.0049,-21.93922 1.0076,-132.09012 0,-153.28125 -0.5656,-11.94004 -0.4865,-16.71292 0.2907,-17.53274 0.7923,-0.8357 10.9902,-1.17081 39.5054,-1.29816 31.6344,-0.14128 39.5991,0.0841 45,1.2734 29.4196,6.4782 44.2383,24.64412 42.1859,51.71479 -1.5079,19.88975 -9.4176,34.11815 -24.7581,44.53564 -15.0492,10.21967 -35.0244,15.56332 -62.1934,16.63757 l -14.7656,0.58382 0,12.17802 c 0,6.69792 0.4651,23.56169 1.0335,37.47506 0.861,21.07529 0.8219,25.4311 -0.2344,26.10046 -2.0636,1.30768 -23.6426,1.01859 -25.3595,-0.33974 z m 51.0673,-95.40962 c 20.665,-1.67805 34.7608,-6.84705 43.1608,-15.82735 6.3148,-6.75102 8.407,-13.31464 7.9483,-24.9349 -0.3162,-8.01157 -0.7636,-10.16637 -3.0763,-14.81646 -4.3444,-8.73514 -11.7485,-14.23667 -24.4236,-18.14773 -4.6508,-1.43508 -8.7994,-1.72331 -24.8037,-1.72331 -10.5703,0 -20.8674,0.34803 -22.8826,0.77341 l -3.6637,0.7734 0.5639,36.49604 c 0.3102,20.07282 0.8237,36.9162 1.141,37.42973 0.741,1.19894 11.1017,1.18986 26.0359,-0.0228 z"
       id="path3354"
       inkscape:connector-curvature="0" />
    <path
       style="fill:#040404"
       d="m 628.125,535.91443 c -6.83442,-1.20081 -6.97232,-1.49178 -4.70229,-9.92198 l 1.08344,-4.02362 3.9188,0.65461 c 16.08767,2.68732 24.81819,3.03608 33.98099,1.35745 13.61984,-2.49517 16.62826,-12.7594 5.99699,-20.46066 -2.04452,-1.48104 -9.29738,-4.932 -16.11746,-7.66881 -21.94716,-8.80711 -28.84797,-15.61685 -28.84797,-28.46727 0,-15.39465 11.89772,-23.50865 36.09375,-24.6152 9.53457,-0.43604 27.21048,0.84777 28.42741,2.06471 0.30445,0.30446 -1.37621,9.8839 -2.1624,12.32525 -0.24916,0.77372 -1.83717,0.69186 -5.80401,-0.29919 -3.00355,-0.7504 -10.31256,-1.41254 -16.24225,-1.47143 -15.44925,-0.15343 -21.5625,2.79954 -21.5625,10.41564 0,5.91057 4.22674,8.74016 24.66698,16.5133 18.07126,6.87226 25.98358,14.61814 26.71827,26.15624 0.20225,3.17627 -0.1197,7.58523 -0.71546,9.79767 -2.32336,8.62832 -11.62963,15.15114 -25.02194,17.53801 -8.77759,1.56442 -31.06942,1.62352 -39.71035,0.10528 z m -137.84847,-1.30506 c -0.0198,-0.38671 0.074,-9.14062 0.20836,-19.45312 0.13438,-10.3125 0.0964,-30.19997 -0.0845,-44.19439 l -0.3288,-25.44438 12.96174,-0.69422 c 16.59973,-0.88907 37.8881,-0.0374 44.33209,1.77347 13.44788,3.77919 19.24133,13.05889 15.71846,25.17716 -1.84649,6.35168 -6.15003,10.92679 -13.61383,14.47286 -6.86622,3.26216 -7.58796,4.60399 -3.6003,6.69345 7.08686,3.71337 12.40584,10.60794 19.82265,25.69459 3.91603,7.96566 7.12007,14.97683 7.12007,15.58037 0,0.77362 -3.13681,1.09734 -10.63313,1.09734 l -10.63315,0 -2.63477,-6.79688 c -3.92466,-10.12439 -10.29656,-22.45745 -12.81244,-24.799 -3.3937,-3.15854 -8.53737,-4.93557 -16.01901,-5.53426 -10.82269,-0.86603 -10.6047,-1.28424 -10.2773,19.71743 l 0.27145,17.41271 -9.88082,0 c -5.43446,0 -9.89702,-0.31641 -9.9168,-0.70313 z m 45.73391,-50.52588 c 7.17719,-3.61727 9.14581,-6.51418 9.14581,-13.45849 0,-6.78906 -1.97769,-9.84367 -8.48622,-13.10732 -4.121,-2.06643 -5.79421,-2.32155 -14.99016,-2.28553 -5.69326,0.0223 -10.86123,0.35565 -11.48437,0.74078 -1.62599,1.00491 -1.59057,28.79979 0.0389,30.49944 0.87549,0.9132 3.61153,1.10425 10.81796,0.75536 8.18638,-0.39633 10.44992,-0.87214 14.95811,-3.14424 z m 178.83331,5.73102 0,-45.49806 9.84375,0.26365 9.84375,0.26365 -0.34425,18.03413 c -0.38043,19.92913 -0.19981,20.53861 5.25129,17.71974 4.25576,-2.20074 19.38344,-19.09149 27.9337,-31.18923 2.55489,-3.61491 3.10695,-3.9115 8.28888,-4.45312 8.15108,-0.85196 15.58913,-0.70732 15.58913,0.30314 0,1.64703 -19.62452,22.38607 -27.64735,29.2175 -4.38771,3.73613 -7.97765,7.26116 -7.97765,7.83341 0,0.57225 2.07545,2.58991 4.6121,4.4837 2.53665,1.89379 8.3002,8.06612 12.8079,13.71629 9.88548,12.39098 23.77111,32.0081 23.80531,33.63131 0.0185,0.87585 -2.91299,1.17188 -11.60457,1.17188 l -11.62925,0 -2.87975,-5.10262 c -3.7558,-6.65491 -12.61582,-19.00855 -19.48857,-27.17315 -6.30818,-7.49391 -12.52222,-11.40407 -15.54903,-9.78416 -1.84934,0.98973 -1.89055,1.61664 -1.41578,21.53967 l 0.48899,20.52026 -9.9643,4e-5 -9.9643,4e-5 0,-45.49807 z"
       id="path3352"
       inkscape:connector-curvature="0" />
  </g>
  <g
     id="g3346"
     transform="matrix(0.32354168,0,0,0.32354168,728.84328,21.736933)">
    <path
       d="m 860,1800 c -65.4,-26.4 -93.7,-53.9 -148,-93.2 -58.1,-42 -63.3,-46.9 -84,-80.5 -92,-150 -131,-400 -116,-633 -113,-76 -62,-192 -98,-159 28.8,-85.4 -22.3,-54.9 -45.9,-82.4 5.49,-46.7 4.51,-61.2 -26.5,-89.7 88.2,-45.3 20.7,-142 34.6,-161 15.4,-19.3 5.74,-34.1 -2.54,-50 12.1,-19.4 26.2,-39.8 38.6,-54.6 47.4,-35.2 87.7,-96.4 122,-134 43,16.6 142,-29 148,-81.4 26.9,-21.5 140,-31.4 122,-66.4 31.6,1.23 87.4,23.9 75.9,-2.45 34.6,3.75 67.5,9.9 95.9,9.89 60.8,1.03 104,-20.5 158,-22.6 141,37 27.3,46.4 304,295 -58.3,33.9 91.4,198 97.5,283 -45.6,39.1 3.04,131 -28.3,146 -13.5,-55 5.85,135 -86.5,168 17.9,281 -15.7,465 -110,636 -20.7,33.5 -25.8,38.5 -84,80.5 -53.2,39.4 -107,89.2 -169,100 -53.1,10.7 -143,14.4 -198,-7.05 z m 316,-100 c 27.7,-44.1 46.4,-104 25.4,-148 -35.7,-72.7 -91.8,-117 -181,-118 -11,0.038 -41.8,7.05 -52.9,6.71 -14.4,-0.301 -23.8,-6.58 -49.2,-6.71 -116,3.43 -144,45 -181,118 -20.4,53.1 -3.84,104 25.4,148 42.8,51.2 126,82.2 185,87.4 71.2,0.17 181,-17.6 229,-87.4 z M 623,1550 c 23.3,28 56.6,10.3 75.6,-11.7 25.6,-40.6 46.9,-88 79.8,-116 33.5,-29.3 96.3,-61 136,-58.6 16.5,0.944 24.7,7.42 51.3,7.46 19.8,0.476 34.4,-7.47 52,-7.36 36.5,4.22 87,21.3 117,43.9 54.4,32 64.5,89.2 98,130 20.9,19.8 51.1,39.2 74.7,12.9 103,-152 83,-370 85.9,-559 6.37,-43.2 19.4,-125 15.3,-159 -20,-124 -40,-210 -90,-320 -110,-89 -337,-78 -437,-32 -73,204 -219,180 -337,266 -18,74 -25,201 -8,251 -7,243 -15,373 89,553 z M 563,913 c 12.2,-10.8 55.6,-38.6 70.5,-39.1 11.8,1.55 21.3,5.85 33.2,8.41 43.7,16.3 156,-7.52 178,2.92 9.3,7.4 20.4,39.5 20.4,50 0,7.75 -1.62,9 -11.5,8.84 -90.6,-8.87 -221,-20.2 -291,-31.1 z m 516,30.6 c -4.99,0.421 -9.14,-1.3 -8.63,-12.7 1.04,-13.2 4.71,-42 15.4,-44.9 60.4,-4.95 110,4.76 175,-2.51 14.5,-0.747 26.7,-9.09 41.2,-9.48 20.6,1.28 59.8,18.4 68.4,39.7 -1.53,0.457 -17.5,1.57 -42,2.93 -16,0.888 -33.1,2.99 -64.7,7.95 -62.2,4.49 -127,13.2 -185,19 z"
       id="path3350"
       inkscape:connector-curvature="0"
       style="fill:#503e27" />
    <path
       d="m 552,1100 c -10.7,-26.1 -15.5,-52.2 -19.3,-79.2 -7.93,-0.956 -16.5,-1.99 -23.4,-2.81 -0.61,-9.21 -1.17,-24.9 -0.843,-34.5 6.54,-0.658 13.8,-1.76 23.1,-2.41 2.47,-7.63 2.75,-15.4 6.28,-23.2 13.9,-13.2 266,-31.1 355,2.57 4.41,4.15 0.926,8.69 7.03,23.9 39.1,-14.5 96.3,-10.7 133,-0.391 1.45,-14 2.49,-15 7.75,-23.9 4.35,-12.2 239,-36.9 350,-4.49 4.13,7.83 7.84,17.4 9.46,25.8 5.54,1.32 19.8,-1.28 23.9,2.03 0.397,12.1 -0.267,23 -1.28,35 -9.16,1.26 -20.8,1.54 -22.3,0.622 -5.54,20.9 -11.8,61.3 -19.8,80.2 -33.4,37.8 -229,64 -319,17.3 -28.8,-15.9 -25.7,-94.6 -28.3,-120 -35.2,-14.4 -104,-20.7 -135,0.0764 -3.55,34.3 -0.226,94.8 -28.1,120 -83.3,47 -258,22.8 -319,-16.4 z m 315,11.7 c 19.5,-14.1 27.5,-81.2 20.1,-145 -39.8,-24.1 -313,-26.1 -341,-1.27 -4.43,39 -5.43,94.9 13.6,130 61.2,38 222,56.5 307,15.9 z m 505,-13.1 c 14.2,-23.9 31,-117 10.3,-138 -48.1,-12.9 -273,-27.4 -336,5.81 -6.45,26.6 -9.1,121 19.8,146 63.5,38.7 254,27.2 305,-13.1 z"
       id="path3348"
       inkscape:connector-curvature="0"
       style="fill:#323039" />
  </g>
  <g
     transform="matrix(0.30367623,0,0,0.30367623,-74.678709,90.125599)"
     id="g4186">
    <path
       d="m 551,758 c 13.9,-33.5 47.5,-75.9 81.6,-85.9 78.6,-6.73 158,-0.487 232,23.5 9.42,10.2 23.6,67.5 15.2,73.5 -72.3,-9.67 -165,-59.1 -252,-13.2 m 655,-7.22 c -93.7,-18.4 -176,30.7 -243,20.4 1.19,-14.9 -1.83,-66.5 15.2,-73.5 75.4,-16.1 165,-38.7 232,-23.5 52.8,12 75.1,66.4 86,90.3 m 44.7,8.17 c -0.068,-59.7 -8.24,-123 -20.9,-176 -12.4,-43.8 -12.5,-89.6 -26.2,-126 -16.3,-43.8 -31.1,-67.3 -67.6,-95.4 -69.8,-29.4 -185,-31.2 -257,-23.6 -60.7,7.36 -124,21.2 -177,27.5 -49.8,12.9 -106,-3.13 -151,-0.264 -53.8,21.4 -129,40.6 -163,77.8 -31,39.8 -39.9,77.2 -44.6,116 -7.83,76 -4.74,134 -7.7,201 l -35.2,-1.12 c -7.1,-74.5 -30.5,-171 -14,-238 5.76,-22.9 5.95,-25.5 6.17,-79.9 1.54,-65.8 -4.43,-127 32.1,-184 38.4,-40.6 69,-102 108,-130 30.1,-21.4 61.1,-21 93.2,-36.9 21.7,-13.7 43.5,-26.8 64.3,-31.5 6.51,-1.44 9.71,-1.54 24.8,-0.837 90,0.632 89.3,-20.9 177,-19.5 14.5,17.3 28,20.3 40.4,20.3 39.4,-1.77 77.4,-13.2 114,-12.4 35.9,6.01 57.9,39.1 88.3,53.2 37.7,14.4 83.7,30.7 104,57.7 8.28,11 12.4,17.3 40.9,62.9 33.5,53.6 44.9,73.7 66.8,118 23.3,47 26.5,55.5 34.3,91.8 11.6,65.4 19.3,119 18.4,188 6.96,65.5 -22.7,103 -20.4,144 z"
       id="path4190"
       inkscape:connector-curvature="0"
       style="fill:#614c36" />
    <path
       d="m 705,1110 c -67.3,0.892 -143,-28.9 -181,-84.1 -21.3,-38.5 -35.6,-74.2 -38.3,-114 -1.41,-22.5 -3.94,-32.8 -12.2,-49.9 -9.43,-16.3 -15,-17.7 -29.4,-25.1 -1.57,-9.83 -0.858,-49.7 4.49,-64.1 34.6,-12.9 67.5,-9.43 103,-17.8 70.6,-4.89 152,-3.4 217,14 37.5,10.9 85.7,37 107,49.6 52.1,-7.66 107,-6.12 162,-0.105 19.3,-14.1 48,-33.3 88.5,-42.5 66.7,-21.2 146,-30.8 259,-18.3 29.4,5.37 61.1,5.58 86.4,15.3 5.92,7.3 5.05,54.9 3.78,61.9 -11.2,10.3 -23.8,13.8 -30.6,28.2 -7.28,15.6 -9.71,25.6 -11.2,46.1 -3.92,39.8 -17.8,86 -39.3,118 -46.1,58.6 -110,80.3 -174,82.3 -133,1.12 -189,-99.1 -209,-173 -9.82,-21.8 1.67,-38.3 -0.985,-56 -22.5,-17.5 -70.1,-28.6 -99.9,2.48 -2.68,17.3 9.6,31.6 -1.05,53.5 -23,94 -100,174 -205,174 z M 880,922 c 1,-65 -48,-110 -106,-128 -77,-16 -182,-36 -236,31 -17.7,22.5 -25.6,48.9 -25.6,84.7 0.0624,56.1 22.8,107 61.3,138 42.6,34.5 97.8,42.8 134,42.4 104,-3.62 172,-66.7 173,-167 z m 342,169 c 52.1,-0.065 125,-37.4 151,-72.5 29.9,-46.9 41.3,-105 27.6,-156 -15,-52.5 -63.8,-82.9 -137,-85.5 -54.8,-1.91 -129,14.4 -166,36.6 -39.5,23.4 -60.3,58.9 -60.3,112 2.2,104 93.7,164 186,165 z M 506,816 c 9.18,-3.43 10.4,-7.55 3.82,-12.3 -9.72,-6.01 -41,-3.15 -43.5,2.71 3.5,7.88 34.3,11.4 39.7,9.63 z m 946,-10.4 c -3.79,-8.5 -29.2,-8.11 -37.6,-4.2 -12,6.88 -9.38,12.3 0.938,16 6.84,3.01 35,-3.78 36.6,-11.8 z"
       id="path4188"
       inkscape:connector-curvature="0"
       style="fill:#050414" />
  </g>
  <g
     transform="matrix(0.30449386,0,0,0.31777657,327.03529,33.976041)"
     id="g3348">
    <path
       d="m 842,1150 c 36.1,-33.6 62.6,-103 64.2,-157 -1.56,-34.5 -47.5,-40.5 -72.3,-43.7 -52,-6.44 -109,-8.65 -167,2.35 -37.7,7.97 -62.3,14.8 -68.4,22.8 -10.8,14.2 -11.6,66.8 -1.61,111 6.57,25.2 16.2,58.2 38.4,68.9 40.1,13.2 181,15.4 206,-4.97 z m 451,-0.033 c 10.3,-5.31 23.8,-33.6 30.6,-63.9 8.23,-36.9 9.36,-83.7 2.5,-103 -2.44,-6.95 -5.42,-10.7 -10.9,-13.7 -9.54,-5.17 -33.6,-11.4 -66.1,-17.3 -73,-11.9 -70.6,-10.5 -160,-0.0626 -22.8,2.75 -42.7,7.67 -59.6,14.7 -11.9,4.96 -15.2,10.8 -15,26.7 8.83,50.8 16,110 64.2,157 27.2,12.7 153,29.8 214,-0.033 z m -790,-162 c 8.36,-4.47 47.6,-15.9 65.8,-19.4 137,-41.4 221,-41.4 339,-14.4 11.3,2.86 22.3,5.61 24.4,6.12 18.9,-2.2 43.5,-2.21 60.9,0 2.06,-0.513 13,-3.27 24.4,-6.12 39.9,-10 69.9,-14.9 111,-18 65.6,-4.98 132,3.56 206,26.5 26.8,5.31 55.8,14 81.6,23 l 9.07,43.8 c -23.2,-10.9 -52.7,-8.57 -72.5,0.685 -4.35,2.12 -4.21,1.7 -7.4,23.3 -5.36,36.4 -16.9,70.1 -32.1,94.2 -9.35,14.8 -16.4,17.8 -50.7,21.6 -71.1,7.8 -120,7.08 -163,-2.38 -21.4,-4.73 -29.6,-12.6 -49.7,-37.4 -26.5,-36.4 -39.9,-130 -55.3,-140 -16.5,-8.21 -45.3,-9.71 -63.3,0 -17.3,34.1 -24.1,79.8 -43.8,120 -13.5,26.8 -28.1,44.1 -43.9,52 -46.4,17.2 -120,16.6 -205,4.3 -37.2,-8.88 -51.2,-72.3 -57.3,-112 -3.19,-21.6 -3.06,-21.2 -7.4,-23.3 -21.9,-7.83 -47.7,-9.06 -77.5,0.568"
       id="path3352-0"
       inkscape:connector-curvature="0"
       style="fill:#565453" />
    <path
       d="m 427,1060 c -28.9,-17.3 -18.7,-188 -28.1,-274 -1.96,-26.5 -61.2,-8.01 -79.7,-2.78 34.1,-95.1 78.4,-157 135,-210 -21.5,-28.7 -79.7,-11.3 -106,-7.02 37.8,-166 120,-249 205,-243 9.03,-9.92 -0.457,-21 6.71,-30.6 24.2,-23.7 61.6,-68.4 82.8,-68.3 84.1,-1.38 124,-29.4 178,-27.7 79.6,1.21 144,70.2 156,55.8 21.5,-42.8 -35.1,-95.8 -45.9,-128 79,10.3 154,79.6 187,135 20,18 37.2,125 51.1,126 70.4,-105 145,-93.9 216,-44.7 11.1,7.99 12.6,9.21 9.84,8.21 -81.4,5.68 -129,-19.8 -127,54.7 1.3,5.75 2.56,5.62 14.9,-1.54 75.2,-42.5 211,5.69 247,59.6 -7.08,6.45 -21.8,14.8 -22.2,24.6 6.37,32.8 36.8,56.8 49.4,83.2 -32.4,75 -16.5,78.7 14.3,216 -15,-6.43 -40.7,-32.9 -57.6,-27 -20.1,17.8 4.19,82.3 4.58,113 2.36,47.5 -18.7,149 -44,182 -7.4,4.94 -19.2,-6.16 -25.3,-10.2 -5.46,0.647 -11.1,0.5 -16.5,1.68 -12.6,-10.9 -22.1,-43.9 -19.3,-62.4 1.02,-3.89 -5.01,-41.9 -14.8,-93.3 -2.26,-11.9 -7.27,-41 -11.1,-64.7 -9.72,-59.6 -13.3,-74.8 -24,-101 -30.8,-86.9 -100,-137 -165,-159 -123,-29.7 -248,11.6 -366,-7.83 -61.8,-10.4 -98.3,-8.99 -141,5.65 -65.9,22.4 -89,89.4 -114,136 -34.7,65.3 -35.7,129 -49.3,186 -8.24,36.9 -27.5,162 -40.9,167 -7.7,0.169 -14.7,-6.01 -22.2,-4.73 -12.1,2.9 -25.9,17.9 -35.8,12.8 z M 836,931 c -45,-9 -60,-10 -101,-9 -24.9,-1.45 -143,16.4 -143,13.1 15.8,-27.6 61.7,-43.8 86.8,-52.1 16.2,-5.26 21,-6.21 57.1,-11.4 60.1,-4.56 95.2,-8.62 141,13.5 9.57,7.21 30.8,44.6 16.9,52 -12.6,2.18 -42.7,-3.29 -57.7,-6.1 z m 189,4.22 c 1.57,-15.5 16.8,-50.4 39.9,-57.6 46.4,-14.4 57.3,-15 119,-6.11 36.1,5.16 40.9,6.11 57.1,11.4 20.2,4.88 85.1,24.8 86.8,52.1 -41.2,-1.56 -101,-12.3 -143,-13.1 -40.6,-0.769 -55.8,0.603 -101,9.07 -21.6,2.75 -42.6,10.4 -59,4.23 z"
       id="path3350-2"
       inkscape:connector-curvature="0"
       style="fill:#433028" />
  </g>
</svg>
